<svg xmlns="http://www.w3.org/2000/svg" width="243.64" height="99.827"  xmlns:v="https://vecta.io/nano"><path d="M0 85.566h23.75v14.26H0v-14.26" fill="#bf2033"/><path d="M0 71.306h23.75v14.26H0v-14.26" fill="#231f20"/><path d="M0 57.043h23.75v14.263H0V57.043" fill="#f68712"/><path d="M0 42.783h23.75v14.26H0v-14.26M0 14.26h23.75v14.263H0V14.26" fill="#231f20"/><path d="M0-.003h23.75V14.26H0V-.003" fill="#51ade5"/><path d="M0 28.52h23.75v14.263H0V28.52" fill="#80cc28"/><g fill="#231f20"><path d="M69.798 28.462c-.005-.008-.025-.008-.03-.003-.125.143-.313.28-.56.28.126.303.23.685.23 1.1s-.052 1.022-.223 1.427l.56-.033.577.033c-.17-.404-.22-1.017-.22-1.426a2.84 2.84 0 0 1 .228-1.092c-.248 0-.435-.137-.56-.28m-2.648-1.795c.495.296.95.6 1.274 1.143l-.468.2c-1.53.753-1.22 3.4.13 3.427l.565-.077a3.35 3.35 0 0 0 .333-1.013c-.103.187-.267.3-.45.3-.3 0-.563-.348-.563-.776s.25-.776.563-.776c.216 0 .404.165.496.4-.022-.418-.122-.797-.28-1.075-.028-.05-.023-.1.01-.154s.095-.06.147-.043c.475.157.764-.322.78-.344.018-.034.045-.06.1-.06s.075.026.097.064c.014.02.306.498.775.342.055-.018.115-.001.148.042s.04.104.013.154c-.16.278-.258.656-.282 1.075.094-.244.282-.408.498-.408.307 0 .562.348.562.776s-.255.775-.562.775c-.187 0-.35-.122-.452-.3a3.31 3.31 0 0 0 .335 1.013l.563.078c1.35-.037 1.66-2.676.13-3.428l-.47-.208c.326-.544.782-.85 1.275-1.143.56-.333 1.046-.642 1.435-1.283.038-.064.017-.146-.045-.183s-.147-.022-.187.043c-.354.582-.857.858-1.373 1.16-.525.3-1.087.615-1.45 1.267-.406-.16-.736-.3-.986-.625-.012-.012-.03-.017-.04-.002-.254.317-.583.465-1 .625-.362-.65-.925-.957-1.45-1.268-.516-.3-1.018-.578-1.372-1.16-.04-.065-.122-.084-.188-.047s-.084.124-.044.187c.4.64.872.948 1.433 1.28"/><path d="M76.624 38.053c1.248.832 2.53 1.503 3.747 2.902 1.08 1.236 1.325 1.9 1.325 2.268 0 .103-.022.18-.048.236-.163.34-.744.392-1.202.378l-.62-.034c-.2-.848-.953-2.656-2.812-4.272-.022-.022-.056-.022-.074 0s-.02.055 0 .076c1.573 1.718 2.255 3.332 2.45 4.16-1.823-.176-2.902-.63-3.136-1.333-.005-.016-.012-.03-.022-.043-.365-1.452-1.296-3.266-2.293-4.266-.02-.022-.054-.023-.075-.004s-.022.055-.003.078c.77.896 1.573 2.644 1.94 4.07-2.038-.28-2.633-1.253-3.138-2.397-.406-.924-.505-1.745-.505-2.523l.04-1.034.037-1.03a16.11 16.11 0 0 0-.042-.822c1.685 2 3 2.632 4.43 3.6zM71.9 46.9c-1.403.107-2.847.1-4.235.005a11.07 11.07 0 0 1-.483-1.065 25.8 25.8 0 0 0 5.198-.005 10.87 10.87 0 0 1-.48 1.065zm-2.12 2.4c-.168 0-.78-.346-1.507-1.387l3.02-.006c-.728 1.044-1.346 1.393-1.514 1.393zm-9.614-5.534c.2-.83.878-2.444 2.45-4.16.02-.02.022-.055.003-.076s-.055-.022-.078-.003c-1.856 1.616-2.608 3.423-2.808 4.273l-.62.033c-.457.017-1.04-.034-1.205-.377a.58.58 0 0 1-.046-.237c0-.357.245-1.03 1.323-2.268 1.218-1.398 2.5-2.068 3.748-2.9 1.44-.96 2.746-1.6 4.43-3.6l-.042.82.078 2.065c0 .777-.095 1.6-.502 2.523-.505 1.144-1.1 2.116-3.14 2.396.367-1.425 1.17-3.173 1.94-4.07.02-.023.02-.056-.003-.077s-.056-.018-.075.004c-1 1.003-1.93 2.82-2.295 4.273-.007.012-.014.022-.016.035-.237.702-1.316 1.156-3.14 1.333zm12.797-.016l-.245 1.068a23.29 23.29 0 0 1-5.874.006l-.247-1.075c1.958.3 4.35.3 6.366.002zm-6.5-.97l-.058-1.096c2 .384 4.697.362 6.75.004l-.057 1.085a23.05 23.05 0 0 1-6.635.008zm3.294-3.132l2.182.077.26.038.107.26.366.737a17.98 17.98 0 0 1-5.806.01 7.89 7.89 0 0 0 .372-.748l.103-.255.264-.042 2.152-.077zm11.044-2.1c.08-.2.104-.724-.1-.9-.34-.333-.83-.442-.83-.442s.105-.26-.156-.544c-.266-.294-2.08-1.284-2.495-1.43l-2.57-.777-.808-.154-.496-.473c1.1-.868 1.825-1.952 1.84-2.293.02-.4-.176-.487-.176-.487s.328-.137.235-.4c-.196-.522-.253-1.656-.253-1.656s.253-.194.622-.175c-.1-.233-.3-.35-.468-.33-.172.02-.273.097-.388.194s-.08.37-.08.547.02.922-.075 1.208c-.156.466-.156.68.02.858-.054.175-1.44 1.4-2.1 1.933-.55-.3-1.185-.443-2.187-.482v-.013h-1.17v.012c-1.006.037-1.642.182-2.2.482-.65-.534-2.034-1.758-2.087-1.935.175-.176.175-.4.02-.858-.095-.286-.078-1.03-.078-1.207s.04-.448-.078-.546-.215-.175-.388-.194-.372.095-.47.33c.37-.02.622.175.622.175s-.058 1.134-.252 1.656c-.095.25.233.4.233.4s-.195.098-.177.5c.018.34.755 1.422 1.842 2.293l-.495.473-.8.15c-.492.105-2.05.6-2.572.78-.4.144-2.226 1.137-2.493 1.43-.26.287-.155.545-.155.545s-.5.108-.83.442c-.193.188-.17.72-.1.9.073.168.27.156.27.156s-.13-.86.574-.96c.362-.052.647-.025.647-.025l1.3-.754c.287-.13.83-1 .83-1s.428.192.82.192c.265 0 1.038-.518 1.505-.85l-.118.12 1.255.063.25.005.397-.008c-1.38 1.47-2.63 2.306-3.853 3.117-1.27.846-2.47 1.646-3.72 3.083-1.185 1.358-1.62 2.3-1.333 2.914.203.423.727.624 1.558.593 2.422-.085 3.897-.552 4.405-1.385-.055.26-.085.55-.1.88-.656 1.082-.988 1.903-1.185 2.646-.12.46-.005.613.3.833-.232.505-.184 1.03-.507 1.208-.78.43-.426.702-.426.702l.74-.117.622-1.598s.133.023.242-.048c.44-.306.108-1.408.887-3.03.313.077.352-.117.43-.858l.13-.98c.522-.15.934-.355 1.264-.605.06 2.592.857 4.5 1.523 5.652.77 1.337 1.73 2.27 2.33 2.27s1.558-.932 2.333-2.267c.664-1.15 1.457-3.053 1.52-5.64.328.242.74.444 1.25.6l.133.983c.078.74.116.932.428.855.78 1.622.45 2.727.888 3.03.107.074.244.048.244.048l.62 1.6.74.116s.35-.272-.428-.7c-.322-.18-.274-.703-.505-1.2.298-.22.4-.374.3-.835-.198-.743-.528-1.56-1.184-2.644-.004-.33-.035-.62-.1-.88.508.833 1.985 1.3 4.404 1.388.835.03 1.357-.17 1.56-.593.286-.603-.15-1.556-1.332-2.917-1.25-1.437-2.45-2.235-3.723-3.082-1.22-.813-2.473-1.65-3.854-3.12l.647.003 1.257-.064-.115-.116c.47.333 1.238.848 1.502.848.4 0 .82-.2.82-.2s.544.857.83.987 1.3.754 1.3.754.287-.027.648.025c.702.1.573.962.573.962s.194.012.27-.155M69.8 54.46c-8.596 0-15.6-6.994-15.6-15.592s6.994-15.6 15.6-15.6 15.6 6.992 15.6 15.6S78.386 54.46 69.8 54.46zm0-31.735c-8.9 0-16.142 7.24-16.142 16.143S60.9 55.012 69.8 55.012s16.145-7.243 16.145-16.144S78.693 22.725 69.8 22.725m-.004 49.75l1.683 1.682-1.683 1.682-1.684-1.682zm-.28 3.724a.39.39 0 0 0 .28.117c.105 0 .205-.042.28-.117l1.764-1.763a.4.4 0 0 0-.002-.56l-1.762-1.763a.4.4 0 0 0-.28-.109.4.4 0 0 0-.28.11l-1.762 1.763a.4.4 0 0 0 0 .56l1.764 1.763m.282-20.316a17.04 17.04 0 0 1-17.014-17.016c0-9.383 7.633-17.015 17.014-17.015a17.04 17.04 0 0 1 17.017 17.015A17.04 17.04 0 0 1 69.79 55.884zM58.5 24.564a18.73 18.73 0 0 0-1.55 1.372l-1.93-1.5a.44.44 0 0 0-.287-.104c-.135 0-.27.063-.362.17l-.96 1.104c-.172.197-.16.5.025.654.007.008.655.646 1.752 1.7-.425.565-.816 1.155-1.172 1.768l-2.25-.94a.41.41 0 0 0-.185-.042.48.48 0 0 0-.423.273l-.64 1.317c-.114.235-.025.516.194.623l2.13 1.18a18.25 18.25 0 0 0-.659 1.978l-2.408-.326c-.027-.006-.055-.008-.08-.008-.217 0-.406.164-.45.4l-.277 1.437c-.05.258.108.505.35.552.008.003.888.225 2.358.6a18.69 18.69 0 0 0-.122 2.047l-2.413.302c-.244.017-.43.243-.4.504l.1 1.46c.017.25.213.444.447.444h.03l2.432-.034c.104.712.246 1.4.428 2.1l-2.247.92c-.234.083-.353.352-.267.597l.48 1.383a.47.47 0 0 0 .44.323c.048 0 .094-.006.14-.023l2.338-.668a17.97 17.97 0 0 0 .92 1.834l-1.936 1.47a.43.43 0 0 0-.183.279c-.024.128.002.258.077.367l.82 1.2a.48.48 0 0 0 .394.219.45.45 0 0 0 .243-.073c.007-.008.793-.467 2.1-1.252.43.542.886 1.057 1.37 1.546l-1.496 1.925c-.165.193-.135.474.065.648l1.102.96a.5.5 0 0 0 .322.125c.13 0 .25-.055.333-.148.007-.008.644-.656 1.698-1.747.57.427 1.167.82 1.784 1.18l-.938 2.242c-.052.107-.06.224-.018.333.04.12.13.22.248.28l1.32.638a.5.5 0 0 0 .213.049.44.44 0 0 0 .406-.247c.007-.008.45-.797 1.18-2.122.636.253 1.3.47 1.96.65l-.328 2.4a.44.44 0 0 0 .07.331.48.48 0 0 0 .311.203l1.437.276c.034.005.065.008.096.008.225 0 .417-.15.457-.357.002-.01.23-.9.6-2.357a16.55 16.55 0 0 0 .638.065v3.435c0 .7-2.354.92-4.02 1.104l-.62.07c-.97.1-1.65.414-2.02.9-.335.45-.273.885-.267.932h16.797c.007-.047.07-.482-.27-.932-.367-.487-1.044-.792-2.016-.9l-.62-.07c-1.664-.185-4.02-.414-4.02-1.104v-.245l-.703.05h-.06c-.432 0-.794-.32-.83-.734l-.307-2.453a8.53 8.53 0 0 0 .365.005l.3 2.4c.018.232.225.4.47.4h.034l1.46-.102c.13-.01.254-.07.337-.167a.42.42 0 0 0 .107-.31L72.4 56.9a17.34 17.34 0 0 0 2.08-.427l.917 2.247a.45.45 0 0 0 .432.294.46.46 0 0 0 .165-.029l1.38-.477a.49.49 0 0 0 .28-.245.43.43 0 0 0 .023-.336c-.002-.01-.245-.883-.667-2.336a18.4 18.4 0 0 0 1.847-.925l1.467 1.937c.08.12.22.193.37.193.1 0 .195-.03.277-.1l1.212-.818a.49.49 0 0 0 .207-.307.43.43 0 0 0-.063-.331c-.005-.008-.468-.792-1.25-2.1.54-.432 1.06-.9 1.55-1.378l1.927 1.495a.43.43 0 0 0 .284.101.48.48 0 0 0 .365-.169l.96-1.104a.49.49 0 0 0 .119-.354.43.43 0 0 0-.146-.297 185.25 185.25 0 0 0-1.747-1.696 18.54 18.54 0 0 0 1.169-1.771l2.243.94a.42.42 0 0 0 .185.043.49.49 0 0 0 .43-.276l.636-1.315c.114-.24.03-.515-.195-.625-.01-.004-.797-.45-2.123-1.18a18.37 18.37 0 0 0 .658-1.98l2.405.33a.54.54 0 0 0 .08.006c.22 0 .407-.162.45-.4l.274-1.437a.5.5 0 0 0-.073-.367c-.066-.098-.163-.163-.275-.182a210.83 210.83 0 0 0-2.357-.595 18.19 18.19 0 0 0 .122-2.047l2.4-.306c.245-.017.432-.244.413-.505l-.1-1.457c-.018-.25-.216-.445-.45-.445-.01 0-.02 0-.032.002s-.917.005-2.43.035a17.85 17.85 0 0 0-.43-2.089l2.248-.925c.233-.082.35-.35.268-.598l-.48-1.38c-.067-.195-.242-.325-.437-.325a.43.43 0 0 0-.14.023 276.38 276.38 0 0 0-2.341.671 18.35 18.35 0 0 0-.92-1.833l1.937-1.474c.097-.065.16-.164.182-.28a.47.47 0 0 0-.077-.365l-.82-1.212a.48.48 0 0 0-.399-.218c-.084 0-.17.026-.24.073-.01.007-.8.47-2.093 1.257a17.78 17.78 0 0 0-1.369-1.543l1.497-1.932c.073-.087.112-.198.105-.315a.48.48 0 0 0-.17-.334l-1.104-.96c-.093-.08-.206-.122-.323-.122a.44.44 0 0 0-.331.147 216.79 216.79 0 0 0-1.7 1.753c-.57-.426-1.165-.82-1.782-1.177l.937-2.25c.05-.104.057-.224.018-.333a.5.5 0 0 0-.25-.28l-1.318-.637c-.067-.034-.143-.05-.217-.05-.177 0-.332.095-.405.247-.005.01-.45.798-1.18 2.13a18.24 18.24 0 0 0-1.959-.65l.328-2.413c.02-.12-.007-.24-.08-.34a.48.48 0 0 0-.306-.19l-1.436-.28a.59.59 0 0 0-.095-.01.46.46 0 0 0-.456.36 165.58 165.58 0 0 0-.59 2.363 14.07 14.07 0 0 0-.645-.063v-3.437c0-.7 2.356-.92 4.02-1.104l.62-.068c.97-.112 1.648-.417 2.016-.905.34-.45.277-.882.27-.93H61.388c-.007.048-.07.48.267.93.368.488 1.05.793 2.02.905l.62.068c1.665.185 4.02.414 4.02 1.104v.236l.708-.05c.02-.002.038-.002.057-.002.435 0 .797.323.83.737a203.14 203.14 0 0 1 .315 2.458l-.365-.004-.3-2.416c-.016-.234-.22-.414-.47-.414h-.034l-1.458.103c-.13.01-.254.07-.337.167a.43.43 0 0 0-.107.31c.001.01.01.917.04 2.437a17.57 17.57 0 0 0-2.075.423l-.923-2.25c-.06-.178-.235-.297-.434-.297a.5.5 0 0 0-.163.028l-1.38.478c-.247.087-.384.346-.3.58a178.13 178.13 0 0 0 .669 2.342 18.25 18.25 0 0 0-1.841.923l-1.478-1.94c-.078-.12-.215-.2-.368-.2a.48.48 0 0 0-.276.086l-1.2.82a.48.48 0 0 0-.207.309c-.023.117 0 .233.063.33a200.27 200.27 0 0 0 1.254 2.095m-5.148 52.23l-.315.1-.008.003-.002-.008-.48-2.563.006-.003.34-.104-.038-.26-1.334.464v.008l.04.25.355-.122.004.008.492 2.56-.005.003-.323.117-.002.005-.002-.005.047.245 1.303-.44-.044-.258-.032.01m1.575-.602c-.032.005-.065.008-.093.008-.274 0-.35-.247-.393-.516l-.172-1.1c-.016-.125-.063-.505.333-.58.04-.008.08-.01.114-.01.28 0 .318.247.35.45l.003.026.165 1.086c.032.227.085.57-.306.646zm.897-1.474l-.025-.177c-.073-.484-.203-.776-.42-.95-.16-.128-.354-.195-.583-.195a1.46 1.46 0 0 0-.294.034c-.337.065-.607.234-.76.477-.16.258-.204.547-.146.94l.064.388.072.464a2.3 2.3 0 0 0 .182.607c.2.372.548.45.815.45.085 0 .175-.008.26-.023.38-.07.64-.216.8-.443s.194-.513.128-.97l-.1-.6m-7.97 1.2l.417 1.755.003.003-.006.005h-.004c-.007 0-.044-.034-.918-.9l-.412-.414-.2.096-.396.185.72 2.958.538-.258-.478-1.935h.008c.005 0 .01 0 .674.68l.777.8.495-.22-.642-3-.576.255m3.384.45c-.128-.115-.337-.193-.56-.206l-.404-.034c-.203-.016-.423-.055-.45-.276-.006-.04-.022-.24.192-.367.043-.02.1-.042.14-.055s.102-.02.154-.02c.168 0 .322.078.413.213l.444-.448c-.213-.206-.444-.307-.7-.307a1.34 1.34 0 0 0-.352.052 1.79 1.79 0 0 0-.318.128l-.026.018-.01.005c-.37.22-.56.58-.503.974.08.6.508.682.976.73.496.05.627.073.658.3s-.127.357-.225.414l-.024.016c-.044.023-.088.044-.126.052a.59.59 0 0 1-.173.026c-.2 0-.352-.096-.456-.276l-.458.463c.216.258.428.372.708.372.134 0 .3-.026.476-.08.087-.023.196-.07.295-.128l.032-.016c.096-.062.17-.117.225-.172.387-.375.33-.776.313-.9-.033-.27-.175-.425-.232-.48m-14 4.317l-.642.16.625 1.997c.072.227.075.4.008.518s-.197.154-.253.167h-.003c-.044.01-.083.016-.12.016-.318 0-.43-.352-.48-.503l-.625-1.987-.67.117.624 1.96c.094.3.226.635.593.85.134.078.3.12.5.12.12 0 .25-.016.377-.044.293-.075.508-.216.64-.427.217-.336.076-.784.022-.953l-.6-1.992m2.093-.14l.006-.003.677-.266-.137-.53-2.007.747.145.53.333-.115.37-.122.007-.005.002.008.7 2.463.6-.224-.693-2.48-.002-.005m4.007-1.79l-.004-.013-.128-.513-2.017.94.142.526.102-.044.607-.27.004.008.682 2.425.592-.276-.666-2.45v-.008h.005l.682-.323m3.01.638l-1.335.66-.007.003-.074-.292-.104-.437h.005l.85-.417-.118-.526-.886.425-.025-.1-.07-.286-.063-.27.092-.047 1.193-.578-.05-.216-.066-.313-.992.482-.9.435.767 2.97 1.9-.95-.118-.54m45.296-3.482l-1.467-.622-.083.23.4.16.005.003v.005l-.728 2.5-.006-.003-.358-.128-.077.253 1.457.583.075-.24-.387-.172-.004-.005v-.005l.728-2.492.004-.005.005.003.38.15.066-.203m5.887 2.874l-1.358 1.82-.014.016v-.02l.08-2.448-.663-.367-.067 3.456.705.362 1.97-2.5-.65-.307m1.57 1.938l.32-.833h.008l.343.15.103-.237-1.388-.573-.108.247.38.16-.002.008-.927 2.492-.007-.003-.34-.135-.087.208 1.35.583.097-.232-.364-.16.001-.005.62-1.667m-5.987-4.16c-.178-.076-.344-.115-.492-.122h-.03c-.387 0-.664.26-.8.745l-.255.904c-.172.615-.055.852.02 1.008.13.255.34.432.677.58a1.29 1.29 0 0 0 .435.099h.035c.077.003.15-.01.215-.03.28-.1.382-.28.45-.4l.005-.008.122-.312-.617-.28c-.085.3-.205.437-.375.437a.54.54 0 0 1-.145-.034c-.367-.16-.282-.482-.233-.656l.324-1.148c.023-.08.07-.23.207-.287a.35.35 0 0 1 .124-.021h.016a.5.5 0 0 1 .148.03c.165.068.328.232.204.62l.614.276c.068-.276.12-.633-.07-.927a1.29 1.29 0 0 0-.58-.469"/><path d="M100.988 80.75h.02a.73.73 0 0 1 .139.023.57.57 0 0 1 .4.487l.6-.164c-.124-.435-.38-.695-.8-.815a1.43 1.43 0 0 0-.345-.06h-.037a.89.89 0 0 0-.878.612c-.206.6.122.904.505 1.203.406.318.508.4.426.64-.06.172-.194.258-.397.26-.046-.003-.098-.01-.147-.02-.268-.083-.42-.286-.426-.575l-.614.174c.108.583.406.776.888.9a1.18 1.18 0 0 0 .309.047h.055a1.07 1.07 0 0 0 .26-.026.96.96 0 0 0 .693-.664.91.91 0 0 0 .016-.565c-.065-.203-.242-.388-.383-.495l-.333-.25c-.184-.138-.342-.28-.266-.5.026-.068.1-.224.325-.224m-12.225-4.752l-.32-.245c-.16-.125-.327-.276-.25-.492h0a.33.33 0 0 1 .325-.229.7.7 0 0 1 .142.023.54.54 0 0 1 .383.482l.57-.17a1.05 1.05 0 0 0-.765-.802 1.31 1.31 0 0 0-.32-.055h-.04c-.406-.003-.727.227-.857.6-.2.583.114.9.484 1.193.385.313.483.404.405.635-.077.224-.268.26-.373.258h-.026a.62.62 0 0 1-.131-.021c-.252-.073-.398-.28-.408-.568l-.6.177c.1.508.312.742.85.904a1.36 1.36 0 0 0 .303.044h.034a1.06 1.06 0 0 0 .265-.031c.487-.13.624-.526.667-.66.1-.276.043-.5.024-.563a1.04 1.04 0 0 0-.371-.492m19.02 2.973a1.16 1.16 0 0 1-.683.773c-.254.1-.576.16-.953.16-1.67 0-4.54-1.003-9.027-3.156l-.04-.018.575-2.484.05.008c5.072.758 8.957 2.2 9.898 3.677.224.354.283.693.18 1.04zm-1.612 5.328c-.1.367-.35.62-.737.784-.312.133-.722.2-1.218.2-1.508 0-4.565-.654-10.58-3.766-3.684-1.9-8.643-4.182-11.345-4.182-.48 0-.875.073-1.176.216a1.26 1.26 0 0 0-.177.099l.488-4.417a1.03 1.03 0 0 1 .561-.854c.22-.122.64-.268 1.372-.268 1.556 0 4.718.66 10.94 3.787 4.634 2.333 9.275 4.5 11.84 4.5.456 0 .844-.068 1.153-.2a1.04 1.04 0 0 0 .147-.07zM81.223 82.2a17.56 17.56 0 0 0 2.204-.747c1.085.456 2.026.948 2.155 1.86v.138h.008a.58.58 0 0 1 .006.081 2.14 2.14 0 0 1-.088.602l-4.286-1.932zm2.363 4.018c-1.147.68-2.75 1.255-4.754 1.708.44-1.516-.006-2.78-1.947-4.63-.07-.068-.133-.133-.198-.198a39.42 39.42 0 0 0 2.836-.484 143.46 143.46 0 0 0 5.352 2.6c-.323.352-.75.7-1.288 1.005zm-6.025 3.346l-.055.102-.044-.107c-.37-.943-1.076-1.643-2.16-2.138l-.096-.044.092-.055c.42-.247.655-.53.714-.862.147-.826-.824-1.65-1.947-2.6-.328-.28-.67-.57-.988-.87v-.013h-.014c-.855-.8-1.566-1.65-1.527-2.516.024-.557.357-1.1 1.014-1.62l2.96 1.66c-.13.216-.22.448-.248.703-.083.742.337 1.547 1.287 2.453 2.444 2.328 2.4 3.466 1 5.917zm-7.767-.664a45.55 45.55 0 0 1-6.186-.451c.553-.456 1.172-.7 1.567-.84l.607-.224-.607-.227c-.64-.24-1-.503-1.04-.784-.097-.55.817-1.33 1.785-2.16l.005-.003.85-.745c1.03.06 2.034.094 2.994.094v.003h.03v-.003a50.56 50.56 0 0 0 3.09-.102c.288.263.586.518.875.766l.016.013c.952.818 1.853 1.6 1.756 2.133-.05.284-.4.55-1.04.786l-.607.227.607.224c.393.148 1.004.38 1.555.828a45.69 45.69 0 0 1-6.259.461zm-7.583.654l-.043.112-.056-.102c-1.4-2.45-1.432-3.6 1-5.917.952-.906 1.372-1.7 1.288-2.453a1.71 1.71 0 0 0-.272-.742l2.95-1.65c.68.542 1.025 1.086 1.05 1.65.056 1.2-1.318 2.362-2.53 3.398-1.123.958-2.092 1.784-1.946 2.6.06.333.294.615.716.862l.1.055-.096.044c-1.08.495-1.788 1.195-2.158 2.133zm-1.364-1.604c-3.016-.674-5.108-1.617-6.135-2.74 1.815-.833 3.6-1.703 5.344-2.596a39.66 39.66 0 0 0 2.919.495 3.69 3.69 0 0 1-.188.187c-1.95 1.86-2.4 3.13-1.94 4.654zm-6.865-4.42c0-1.057 1.002-1.6 2.17-2.078.64.27 1.38.523 2.2.75l-4.28 1.927a2.11 2.11 0 0 1-.089-.599zm-8.038-2.018c-6.017 3.112-9.076 3.766-10.583 3.766-.492 0-.902-.068-1.22-.2-.384-.164-.626-.417-.735-.784l-1.265-4.18c.046.023.093.05.143.068.3.133.698.2 1.156.2 2.56 0 7.203-2.156 11.84-4.5 6.22-3.128 9.382-3.787 10.94-3.787.732 0 1.15.146 1.367.268a1.02 1.02 0 0 1 .566.854l.5 4.417a1.44 1.44 0 0 0-.177-.099c-.3-.143-.697-.216-1.174-.216-2.704 0-7.66 2.273-11.346 4.182zm-14.15-2.544c-.105-.35-.048-.687.177-1.042.942-1.477 4.826-2.92 9.9-3.677l.05-.008.576 2.484-.04.018C37.97 78.9 35.1 79.902 33.43 79.902c-.38 0-.7-.052-.952-.16a1.16 1.16 0 0 1-.682-.771zm26.956-.372l.025.237.003.013h.001c.04.917-.883 1.37-2.357 1.97-.904.37-1.883.776-2.446 1.437-.012-1.232-.044-2.536-.133-3.7 1.44-.48 2.605-.734 3.44-.734.4 0 .727.06.972.175a.84.84 0 0 1 .494.615zm4.958 2.1a1.26 1.26 0 0 1 .22.565c.048.417-.145.893-.564 1.422a41.21 41.21 0 0 1-2.623-.411l2.968-1.576zm-1.57-1.828l-.012-.008c-.6-.357-1.17-.7-1.4-1.047-.448-.68-.448-1.3-.001-1.693.25-.224.62-.35 1.013-.35.435 0 .86.156 1.198.445 1.062.906 2.057 1.463 3.346 2.057L63.46 79.73c-.398-.323-.873-.604-1.32-.872zm2.702-4.22a3.37 3.37 0 0 1 .942.135l.315.203v1.044c0 .818.878 1.115 2.068 1.22l-1.35.737-.008-.003c-1.414-.635-2.448-1.2-3.556-2.135a2.33 2.33 0 0 0-1.066-.51c.795-.36 1.74-.693 2.654-.693zm-8.594-4.365a6.91 6.91 0 0 1-2.555-.492c-.7-.28-1.4-.68-2.06-1.185a11.31 11.31 0 0 1-2.47-2.654l-.03-.044.05.018c.445.135 1.083.167 1.82.198 1.097.047 2.34.102 3.337.53.937.406 1.77.966 2.447 1.513l.495.42c.58.508.995.96 1.196 1.2-1.6-.115-4.396-1.15-5.33-1.52.998.664 3.076 1.463 4.784 1.823a7.27 7.27 0 0 1-1.687.203zM53.67 60.74c-.077-.734-.144-1.367-.3-1.802l-.02-.055.048.03c.617.357 2.182 1.357 3.364 3.008.607.852 1.023 1.753 1.236 2.682.226.964.236 1.966.034 2.987-.538-1.807-1.926-4.328-2.28-4.78.393.8 1.624 3.576 1.932 5.073-.65-.513-2.293-1.932-3.26-3.84-.494-.97-.626-2.2-.744-3.302zm10.573 9.703c-.632-.247-1.288-.503-1.764-.88-.52-.417-.808-.854-.856-1.3a1.33 1.33 0 0 1 .247-.914c.25-.266.538-.393.88-.393.5 0 1.08.258 1.842.625.345.167.735.354 1.13.503.683.258 1.262.458 1.775.607l-.004.008.17.133c.6.464 1.122.87 1.18 2.15-1.393.063-2.185.273-2.532.698-.43-.596-1.257-.917-2.066-1.227zm2.4-4.755h0c.655.044 1.18.206 1.687.362.48.148 1.022.284 1.538.305h.047c.5-.02.968-.156 1.454-.307.48-.146 1.024-.315 1.68-.36l.083-.003c.672 0 2.2.43 3.297.87-.502.115-1.03.367-1.558.617a12.96 12.96 0 0 1-1.07.479c-1.876.708-2.918.958-3.935.97-1.02-.013-2.102-.263-3.975-.97-.362-.135-.7-.302-1.1-.492-.5-.242-1.032-.492-1.532-.604 1.138-.443 2.7-.867 3.383-.867zm11.417 2.557c-.044.456-.333.9-.854 1.318-.463.372-1.12.622-1.763.872-.835.323-1.693.656-2.136 1.276-.32-.443-1.1-.667-2.465-.734.055-1.286.58-1.693 1.18-2.154l.172-.135-.005-.005c.5-.148 1.1-.35 1.775-.6.4-.15.787-.336 1.13-.503.766-.367 1.345-.63 1.844-.63a1.14 1.14 0 0 1 .87.391 1.36 1.36 0 0 1 .252.914zm3.542-3.64c.216-.93.633-1.83 1.24-2.682 1.178-1.65 2.743-2.65 3.362-3.008l.048-.03-.02.055c-.164.435-.23 1.068-.3 1.802-.118 1.1-.25 2.33-.742 3.302-.97 1.9-2.6 3.328-3.264 3.84.3-1.497 1.54-4.263 1.932-5.073-.354.453-1.742 2.974-2.28 4.78-.204-1.02-.193-2.023.032-2.987zm3.647 2.042c1-.43 2.242-.484 3.338-.53.74-.03 1.376-.062 1.82-.198l.05-.018-.03.044a11.36 11.36 0 0 1-2.47 2.654c-.656.505-1.352.904-2.057 1.185a6.93 6.93 0 0 1-2.558.492c-.553 0-1.118-.068-1.684-.203 1.708-.36 3.783-1.16 4.78-1.823-.93.37-3.74 1.406-5.327 1.52.2-.23.618-.682 1.195-1.195l.5-.414c.68-.544 1.514-1.107 2.45-1.513zM74.704 74.64c.962 0 1.974.344 2.77.695a2.32 2.32 0 0 0-1.049.508c-1.065.906-2.3 1.505-3.682 2.125l-1.33-.73c1.185-.104 2.06-.398 2.06-1.216v-1.04l.375-.24c.267-.068.553-.104.857-.104zm-4.918-3.234c2.923.005 3.234.47 3.234.9v3.708c0 .675-1.333.818-3.24.82s-3.232-.146-3.232-.82V72.3c0-.437.316-.904 3.238-.9zm0-.453l-.493.008c-.05-1.04-.4-1.615-.8-2.03a7.34 7.34 0 0 0 1.373.146 7.18 7.18 0 0 0 1.323-.14c-.4.4-.753.984-.8 2.03-.187-.008-.384-.008-.594-.01zm-.003 7.747c-.657-.008-1.252-.096-2-.297l1.9-1.104h.198l1.874 1.1c-.747.2-1.346.302-1.982.3zm2.63 4.313a50.59 50.59 0 0 1-2.626.073 46.91 46.91 0 0 1-2.527-.07c.8-.792 1.403-1.65 1.36-2.578-.024-.526-.255-1.02-.7-1.503.656.167 1.22.24 1.833.245h.038c.642-.008 1.25-.096 2-.297-.467.495-.713 1-.74 1.555-.04.927.57 1.784 1.358 2.575zm6.537-6.898c.446.393.446 1 0 1.693-.234.357-.808.698-1.418 1.06h-.008c-.457.273-.944.563-1.348.9l-2.898-1.508c1.248-.57 2.443-1.177 3.46-2.047a1.85 1.85 0 0 1 1.2-.445c.392 0 .76.128 1.013.35zm-3.206 5.14a1.26 1.26 0 0 1 .196-.526l2.9 1.537c-.798.154-1.646.286-2.54.404-.415-.526-.604-1-.558-1.414zm5.055-2.4h0l.003-.01.025-.237c.063-.292.22-.5.496-.62.245-.115.572-.175.97-.175.83 0 1.986.253 3.4.727-.085 1.112-.112 2.346-.12 3.7-.568-.65-1.534-1.052-2.43-1.42-1.474-.6-2.396-1.052-2.357-1.966zM48.253 63.738c-.738-.32-1.43-.78-2.058-1.36a9.55 9.55 0 0 1-2.076-2.865l-.022-.047.047.018c.442.22 1.128.34 1.856.466.97.167 2.07.354 2.9.833a9.44 9.44 0 0 1 2.175 1.771c.552.596.943 1.148 1.166 1.5-1.5-.508-4.36-2.003-4.94-2.3.306.263 2.567 1.84 4.416 2.555-.2.016-.422.023-.63.023-1.002 0-1.956-.193-2.835-.575zM41.8 55.78c-1.077-1.1-1.763-2.36-2.148-3.234l-.026-.057.054.034c.5.3 1.18.487 1.914.674l.015.003c.9.234 1.855.47 2.608 1 .732.513 1.427 1.17 2.063 1.95a11.17 11.17 0 0 1 .974 1.398c-1.37-.557-3.486-1.84-4.714-2.492.56.487 2.885 2.1 4.487 2.87-.074.003-.146.003-.215.003-1.9 0-3.598-.72-5.013-2.15zm.32-4.362c-.623-.33-1.197-.804-1.707-1.408-.922-1.1-1.464-2.44-1.823-3.328l-.001-.004c-.164-.397-.3-.713-.405-.9l-.032-.048.055.013a8.28 8.28 0 0 1 2.663 1.073c.713.444 1.36 1.003 1.923 1.66a8.81 8.81 0 0 1 1.06 1.543c.17.533.352 1.06.548 1.58-.918-.675-3.205-2.763-4.02-3.602.892 1.285 2.715 3.164 3.995 4.024a5.37 5.37 0 0 1-2.259-.601zm-3.14-8.67c-.65-1.26-.875-2.667-1.027-3.6l-.002-.013c-.067-.415-.12-.742-.187-.946l-.016-.048.048.02c.874.4 1.66.922 2.336 1.58.457.445.862.948 1.206 1.496h.04l-.033.022h.001l-.008-.004c.37.583.646 1.184.848 1.767l.005-.001.001-.02v.017a9.01 9.01 0 0 1 .233.794 6.99 6.99 0 0 1 .176 1.06c-.86-.776-1.928-2.305-2.552-3.015.306.813 1.555 2.797 2.532 3.73-.868-.206-1.627-.578-2.252-1.1-.54-.456-.993-1.038-1.352-1.732zm2.436-12.032a6.02 6.02 0 0 1-.405-2.228c.006-1.62.6-2.88.784-3.227l.022-.043.013.045c.08.28.306.62.568 1.016l.004.004c.406.608.9 1.365 1.056 2.2.133.76.128 1.618-.015 2.555a11.26 11.26 0 0 1-.308 1.407 37.01 37.01 0 0 1-1.043-3.899c-.01.482.328 2.984.707 4.272-.62-.633-1.085-1.34-1.383-2.103zm4.905-13.992a7.04 7.04 0 0 1 1.386-2.763l.03-.04v.052c.015.265.122.616.24 1v.004c.2.62.425 1.393.377 2.175a8.62 8.62 0 0 1-.486 2.284 9.94 9.94 0 0 1-.396.977c-.093-.996-.157-3.53-.157-3.53s-.393 2.796-.252 4.16c-.46-.707-.75-1.458-.857-2.24-.094-.67-.054-1.366.115-2.066zm4.666-2.4a4.21 4.21 0 0 1 1.035-.808c1.022-.555 1.835-.835 2.373-1.02l.004-.001c.257-.1.46-.158.567-.22l.04-.022-.004.046c-.064.728-.242 1.376-.53 1.925-.368.7-.932 1.28-1.67 1.685-.915.503-1.695.793-2.266 1.003l-.004.003-.42.158c.747-.994 2.26-2.4 2.26-2.4s-2.077 1.4-2.808 2.506c.05-.518.292-1.195.652-1.813a5.52 5.52 0 0 1 .77-1.03zM46.6 27.65v-.005c.454-.376.885-.733 1.135-1.087l.025-.036.01.044c.053.266.294 1.672-.295 3.3-.27.75-.677 1.418-1.205 2-.58.625-1.315 1.134-2.183 1.52.736-.82 1.84-2.48 2.206-3.613-.337.566-1.708 2.5-2.432 3.303a8.75 8.75 0 0 1 .175-1.353 7.95 7.95 0 0 1 .817-2.24c.398-.716 1.1-1.304 1.738-1.824zm-3.217 10.742c.27-.803.88-1.517 1.418-2.144l.008-.01c.384-.45.75-.878.93-1.27l.02-.042.016.042c.158.383.293.892.367 1.4.097.7.096 1.372-.006 2.03-.128.818-.412 1.578-.842 2.258-.44.694-1.035 1.307-1.773 1.832.528-1.1 1.292-2.995 1.402-3.918-.3.9-1.27 2.96-1.846 3.818a33.27 33.27 0 0 1-.08-1.904c.045-.747.17-1.453.386-2.093zm.693 9.505c-.01-.86.36-1.732.686-2.5.235-.552.456-1.075.5-1.517l.006-.042.028.03c.302.332.62.793.872 1.264a7.03 7.03 0 0 1 .72 1.982 5.61 5.61 0 0 1-.054 2.444c-.205.818-.603 1.602-1.2 2.337.2-1.37.3-3.87-.02-5.234.06.658-.033 3.785-.36 5.22a32.02 32.02 0 0 1-1.159-3.455c-.016-.178-.027-.354-.03-.53zm4.038 3.97l-.008-.044.04.026c.743.53 1.87 1.68 2.602 3.18a7.52 7.52 0 0 1 .753 2.727c.076 1.052-.092 2.122-.497 3.174-.167-1.773-.927-4.417-1.28-5.117.204.875.86 3.513.863 4.87a12.18 12.18 0 0 1-1.003-1.346c-.57-.878-1-1.763-1.252-2.633-.295-.974-.242-2.15-.195-3.2.028-.672.055-1.25-.022-1.646zm-8.07-14.856a6.14 6.14 0 0 1-.972-2.091 7.48 7.48 0 0 1-.055-3.383l.013-.05.02.046c.153.254.463.53.823.853l.01.007c.554.495 1.244 1.1 1.598 1.894.326.713.542 1.56.642 2.522a11.3 11.3 0 0 1 .059 1.399c-.603-.77-1.52-2.6-1.927-3.266.2.7 1.004 2.78 1.763 3.827-.804-.47-1.47-1.06-1.975-1.76zm3.4-12.637a5.87 5.87 0 0 1-.126-2.236c.208-1.597.953-2.773 1.177-3.095l.027-.038.008.046c.045.284.23.642.44 1.058l.003.003c.327.638.733 1.432.775 2.27.037.76-.074 1.606-.33 2.512a11.28 11.28 0 0 1-.43 1.234c-.344-1.17-.537-3.163-.583-3.916-.137.843-.102 3.3.26 4.5-.594-.72-1.005-1.508-1.22-2.34zm4.944-3.363c.554-.608 1.383-1.022 2.113-1.388l.005-.003c.54-.27 1.05-.527 1.388-.825l.033-.03v.045c-.036.77-.344 2.08-1.104 3.237-.446.682-1.003 1.247-1.655 1.68-.643.428-1.383.727-2.202.893.78-.706 2.33-2.177 2.795-2.977-.266.316-2.24 2.138-3.26 2.842a9.27 9.27 0 0 1 .561-1.471c.367-.768.814-1.444 1.326-2.005zm39.68 36.744c.067-.922.32-1.84.75-2.727.732-1.5 1.86-2.65 2.603-3.18l.04-.026-.008.044c-.075.396-.05.974-.02 1.646.047 1.04.098 2.216-.197 3.2-.262.87-.682 1.755-1.25 2.633a12.29 12.29 0 0 1-1.004 1.346c0-1.357.657-3.995.863-4.87-.353.7-1.113 3.344-1.28 5.117-.405-1.052-.573-2.122-.496-3.174zm4.6-10.643c.13-.672.372-1.34.72-1.982a6.56 6.56 0 0 1 .871-1.264l.03-.03.004.042c.046.442.267.965.503 1.517.325.77.694 1.642.684 2.5-.002.175-.012.35-.028.53-.322 1.177-.707 2.33-1.16 3.455-.325-1.435-.417-4.563-.358-5.22-.3 1.363-.22 3.863-.02 5.234-.6-.735-.986-1.52-1.2-2.337-.2-.786-.217-1.6-.055-2.444zm1.594-6.457c-.43-.68-.714-1.44-.843-2.258a6.84 6.84 0 0 1-.004-2.031 6.15 6.15 0 0 1 .364-1.4l.017-.042.017.042c.184.393.547.82.932 1.27l.008.01c.54.628 1.148 1.34 1.42 2.144a8.03 8.03 0 0 1 .385 2.093c-.007.64-.035 1.276-.078 1.904-.578-.858-1.54-2.93-1.846-3.818.1.923.875 2.808 1.4 3.918-.736-.525-1.334-1.138-1.773-1.832zm-.984-8.8a5.84 5.84 0 0 1-1.206-1.991c-.6-1.628-.347-3.034-.294-3.3v-.044l.023.036c.25.354.682.7 1.136 1.087l.007.005c.63.52 1.34 1.108 1.74 1.824.37.663.644 1.417.818 2.24.113.544.16 1 .174 1.353-.724-.805-2.096-2.737-2.432-3.303.366 1.133 1.47 2.794 2.206 3.613-.867-.386-1.602-.896-2.182-1.52zm-4.26-14.958c-.57-.2-1.353-.5-2.264-1.003-.74-.406-1.303-.974-1.672-1.685-.287-.55-.464-1.198-.53-1.925l-.002-.046.037.022c.1.063.3.133.568.22h.002c.54.185 1.352.465 2.372 1.02.367.2.714.47 1.038.808.285.302.544.648.768 1.03.36.617.602 1.294.65 1.813-.73-1.097-2.807-2.506-2.807-2.506s1.5 1.415 2.26 2.4l-.418-.158zm2.56-1.933v-.004c.117-.373.224-.725.236-1v-.052l.034.04a7.07 7.07 0 0 1 1.386 2.763c.17.7.2 1.397.114 2.066a5.46 5.46 0 0 1-.86 2.24c.143-1.363-.25-4.16-.25-4.16s-.066 2.533-.156 3.53c-.143-.304-.28-.637-.397-.977-.274-.783-.44-1.573-.487-2.284-.048-.78.2-1.554.38-2.175zm4.518 13.518c.145-.836.65-1.593 1.057-2.2v-.004c.264-.394.5-.735.57-1.016l.012-.045.022.043a7.33 7.33 0 0 1 .784 3.227c.004.78-.133 1.53-.405 2.228-.297.763-.763 1.47-1.382 2.103.378-1.287.717-3.8.707-4.272a36.95 36.95 0 0 1-1.043 3.899c-.105-.367-.223-.853-.3-1.407-.14-.936-.146-1.796-.012-2.555zm1.266 14.536V43l.007.003-.004.02a8.65 8.65 0 0 1 .847-1.767l-.002-.003-.002.004-.035-.022h.042a8.08 8.08 0 0 1 1.207-1.496 7.93 7.93 0 0 1 2.337-1.581l.045-.02-.016.048c-.07.204-.12.53-.187.946v.013c-.15.932-.378 2.34-1.028 3.6-.358.694-.813 1.276-1.352 1.732-.625.53-1.383.904-2.253 1.1.978-.932 2.228-2.917 2.532-3.73-.624.7-1.7 2.24-2.55 3.015a7.12 7.12 0 0 1 .176-1.06 8.6 8.6 0 0 1 .234-.794zm-.602 5.456c.565-.656 1.2-1.215 1.925-1.66a8.26 8.26 0 0 1 2.662-1.073l.056-.013-.032.048c-.113.187-.24.503-.405.9v.004c-.36.888-.902 2.228-1.823 3.328-.5.604-1.083 1.078-1.708 1.408-.68.36-1.438.56-2.258.6 1.28-.86 3.103-2.74 3.995-4.024-.815.84-3.104 2.927-4.022 3.602a31.34 31.34 0 0 0 .55-1.58 8.92 8.92 0 0 1 1.06-1.543zm-1.4 5.726c.753-.53 1.696-.766 2.608-1l.015-.003c.733-.187 1.424-.365 1.916-.674l.052-.034-.027.057c-.384.875-1.07 2.146-2.146 3.234-1.415 1.427-3.1 2.15-5.013 2.15-.07 0-.142 0-.216-.003 1.604-.76 3.93-2.383 4.488-2.87-1.228.65-3.345 1.935-4.714 2.492.197-.336.515-.836.974-1.398.636-.78 1.33-1.437 2.063-1.95zm-1.775 5.753c.73-.125 1.417-.245 1.857-.466l.047-.018-.02.047c-.23.495-.9 1.766-2.077 2.865-.63.58-1.32 1.04-2.057 1.36a7.05 7.05 0 0 1-2.834.575 8.84 8.84 0 0 1-.63-.023c1.85-.714 4.1-2.292 4.417-2.555-.58.307-3.44 1.802-4.94 2.3a12.47 12.47 0 0 1 1.167-1.5c.68-.734 1.4-1.328 2.176-1.77.83-.48 1.93-.667 2.897-.833zM88.752 22.05c-.76-1.156-1.067-2.466-1.103-3.237v-.045l.033.03c.337.298.848.555 1.388.825l.006.003c.73.366 1.558.78 2.113 1.388.513.56.958 1.237 1.325 2.005.292.607.467 1.132.56 1.47-1.02-.704-2.993-2.526-3.258-2.842.466.8 2.017 2.27 2.794 2.977-.82-.167-1.56-.465-2.203-.893-.65-.434-1.2-1-1.655-1.68zm5.078.336c.04-.84.45-1.633.775-2.27l.001-.003c.213-.417.395-.775.44-1.058l.008-.046.025.038a7.3 7.3 0 0 1 1.177 3.095c.1.772.057 1.525-.128 2.236-.213.83-.624 1.618-1.218 2.34.362-1.186.398-3.656.26-4.5-.047.753-.24 2.746-.583 3.916a11.05 11.05 0 0 1-.43-1.234c-.256-.906-.368-1.75-.33-2.512zm3.613 14.426c.1-.963.317-1.8.64-2.522.357-.784 1.045-1.4 1.6-1.894l.007-.007c.36-.32.672-.6.824-.853l.022-.046.014.05a7.5 7.5 0 0 1-.055 3.383c-.2.772-.527 1.475-.973 2.1-.505.698-1.17 1.3-1.976 1.76.76-1.048 1.573-3.116 1.765-3.827-.408.677-1.327 2.495-1.928 3.266a11.62 11.62 0 0 1 .059-1.399zm10.57 40.86c-1.07-1.68-5-3.15-10.544-3.937l-.183-.023-.648 2.802-.065-.03-2.056-1.02c-4.987-2.5-8.852-3.833-11.18-3.833-.66 0-1.194.1-1.582.323a1.51 1.51 0 0 0-.8 1.232l-.518 4.68-.083.7c-.016.1-.026.177-.03.26v.005c-.05 1.253 1.245 1.844 2.473 2.35-.664.255-1.418.487-2.248.698L76.652 80c.347-.266.75-.5 1.133-.727.655-.4 1.272-.758 1.567-1.206.583-.9.552-1.76-.085-2.323a1.72 1.72 0 0 0-.425-.27l.004-.005-.013-.008c-.734-.388-2.447-1.292-4.1-1.307a88.63 88.63 0 0 0 5.48-3.91c.95.422 1.935.64 2.936.64 3.7-.003 7.17-3.047 8.292-5.888-.54.47-1.65.542-2.927.622l-.02.003c-.94.065-2.007.135-2.95.385-.202.055-.4.125-.595.2a52.94 52.94 0 0 0 1.568-1.542c.677.18 1.352.273 2 .273 4.23 0 7.166-3.693 7.683-6.385-.406.466-1.406.643-2.562.846-.876.156-1.867.33-2.724.664-.253.096-.495.216-.727.352a38.74 38.74 0 0 0 1.408-1.977 8.06 8.06 0 0 0 1.145.083h.002a7.36 7.36 0 0 0 3.284-.76c.007-.005.016-.01.023-.013a.31.31 0 0 0 .03-.016l.034-.016c.022-.013.046-.023.07-.037l.137-.075c.016-.005.018-.01.022-.01 1.62-.9 2.987-2.443 3.747-4.232.264-.628.44-1.27.516-1.862-.37.497-1.344.76-2.466 1.065-.854.23-1.824.492-2.65.9-.67.33-1.252.805-1.778 1.362.407-.797.78-1.6 1.117-2.435a4.83 4.83 0 0 0 .482.026c1.818 0 3.573-1 4.7-2.644.538-.796.86-1.577 1.172-2.335.365-.888.707-1.727 1.357-2.407-.732.005-2.555.164-4.4 1.4a8.19 8.19 0 0 0-1.967 1.885 29.89 29.89 0 0 0 .5-2.322c2.043-.137 3.867-1.557 4.687-3.68.344-.887.478-1.708.6-2.503l.003-.01c.15-.92.296-1.793.76-2.57-.704.155-2.423.677-3.92 2.256-.756.797-1.332 1.733-1.725 2.797a33.44 33.44 0 0 0 .03-2.802c1.678-.7 2.906-1.915 3.557-3.503.865-2.112.523-4.327-.042-5.6-.04.478-.592.978-1.224 1.552l-.005.005c-.516.47-1.103 1.002-1.544 1.637-.604.87-.84 2.004-.933 3.225a38.97 38.97 0 0 0-.473-3.121c1.435-1.1 2.3-2.547 2.538-4.226.297-2.22-.574-4.238-1.428-5.32.078.47-.323 1.078-.782 1.784-.376.575-.8 1.23-1.062 1.94-.2.543-.27 1.135-.257 1.76-.207-.702-.43-1.4-.678-2.128 1.287-1.206 2-2.7 2.025-4.367.05-2.242-1.075-4.17-2.07-5.163.13.453-.187 1.095-.56 1.833-.3.6-.642 1.285-.814 2.013-.147.624-.126 1.292-.004 1.983a63.38 63.38 0 0 0-.905-2.033c1.02-1.182 1.503-2.6 1.392-4.08C93.7 15.57 92.463 13.85 91.44 13c.17.42-.033 1.066-.266 1.807l-.003.01c-.176.56-.377 1.193-.45 1.84-.08.67.025 1.37.24 2.094l-.382-.716c-.2-2.2-1.05-3.768-2.6-4.8-.758-.5-1.524-.782-2.2-1.02-.794-.282-1.43-.508-1.72-1.005-.25 1.765.568 4.173 2.592 5.198a32.64 32.64 0 0 0 1.657.771c.85.374 1.515.67 1.97 1.086a68.52 68.52 0 0 1 1.312 2.544c-.077-.08-.152-.16-.233-.234-.063-.057-.128-.12-.193-.174-.613-.5-1.396-.923-2.088-1.297l-.005-.004c-.917-.497-1.7-.927-1.905-1.4-.284 1.3.024 3.358 1.36 5.077.852 1.1 2.4 2.392 5.03 2.498a49.92 49.92 0 0 1 1.227 3.543c-.475-.6-1.104-1.147-1.664-1.64l-.01-.007c-.77-.677-1.44-1.266-1.512-1.758-.556 1.12-.75 3.068.053 4.943.552 1.288 1.764 2.975 4.393 3.793a37.2 37.2 0 0 1 .435 3.735c-.014-.024-.024-.048-.037-.07-.374-.715-.934-1.4-1.43-2.026-.646-.802-1.204-1.496-1.182-2-.8 1.073-1.4 3.073-.9 5.17.3 1.336 1.165 3.15 3.46 4.425-.12 1.16-.302 2.298-.54 3.416-.158-.606-.4-1.214-.604-1.766L95.26 45c-.372-.965-.695-1.805-.493-2.287-1.276.857-2.625 2.732-2.8 5.027-.1 1.323.172 3.232 1.956 5.046a34.33 34.33 0 0 1-2.184 4.18 5.11 5.11 0 0 0 .148-.68c.133-.914.085-1.92.046-2.8-.05-1.154-.095-2.16.254-2.628-1.5.6-3.38 2.26-4.284 4.7-.54 1.456-.893 3.693.35 6.234-.96 1.143-1.993 2.25-3.092 3.325a6.3 6.3 0 0 0 .665-1.354c.315-.937.45-2.003.57-2.945l.003-.005c.163-1.268.305-2.362.805-2.872-1.297.422-2.672 1.313-3.787 2.448l-.04.044a4.18 4.18 0 0 0-.13.135c-.01.008-.016.016-.023.023l-.01.01-.147.16c-.013.016-.018.023-.02.026a9.67 9.67 0 0 0-1.495 2.25c-.867 1.833-.987 3.755-.358 5.6-2.37 1.9-4.957 3.73-7.72 5.47V72.3c0-.01-.002-.02-.002-.03l.032.008c.24-.716 1.144-1.065 2.1-1.437.665-.255 1.352-.518 1.875-.935.622-.5.968-1.044 1.023-1.628a1.77 1.77 0 0 0-.37-1.263 2.54 2.54 0 0 0-.209-.19h.003c-.743-.664-3.7-1.604-4.803-1.604-.04 0-.077.003-.114.005-.704.047-1.276.22-1.782.375-.473.146-.888.276-1.35.3-.46-.013-.956-.143-1.43-.3-.505-.154-1.08-.328-1.785-.375-.034 0-.068-.005-.104-.005-1.097 0-4.068.94-4.8 1.604h.004a1.95 1.95 0 0 0-.22.2c-.017.02-.432.523-.36 1.253.058.583.403 1.128 1.025 1.628.528.422 1.215.687 1.886.943.904.352 1.758.68 2.003 1.34l.02-.005c-.003.04-.008.078-.008.12V74.1c-2.76-1.742-5.342-3.557-7.712-5.466.632-1.836.5-3.758-.358-5.6a9.59 9.59 0 0 0-1.495-2.25.17.17 0 0 0-.02-.026l-.146-.16-.01-.01c-.008-.008-.014-.016-.02-.023a2.71 2.71 0 0 0-.132-.135l-.026-.03c-.004-.005-.01-.01-.013-.016-1.115-1.135-2.5-2.026-3.788-2.448.502.5.643 1.604.808 2.872v.005c.12.943.255 2.008.57 2.945a6.2 6.2 0 0 0 .664 1.354c-1.098-1.075-2.132-2.182-3.1-3.325 1.243-2.542.9-4.78.35-6.234-.905-2.44-2.793-4.112-4.284-4.7.35.47.305 1.475.255 2.628-.04.9-.087 1.896.047 2.8a5.45 5.45 0 0 0 .146.68 34.55 34.55 0 0 1-2.184-4.18c1.784-1.815 2.058-3.723 1.957-5.046-.177-2.295-1.527-4.17-2.803-5.027.203.483-.12 1.323-.495 2.287v.007c-.212.552-.445 1.16-.603 1.766a31.47 31.47 0 0 1-.542-3.416c2.294-1.276 3.15-3.1 3.46-4.425.488-2.097-.102-4.097-.9-5.17.022.504-.537 1.198-1.18 2-.495.615-1.056 1.3-1.43 2.026-.013.023-.022.047-.034.07a36.79 36.79 0 0 1 .433-3.735c2.63-.818 3.84-2.505 4.393-3.793.805-1.875.607-3.823.053-4.943-.074.492-.744 1.08-1.513 1.758l-.008.007c-.56.493-1.2 1.05-1.664 1.64a49.37 49.37 0 0 1 1.225-3.543c2.62-.107 4.178-1.407 5.03-2.498 1.336-1.72 1.646-3.778 1.36-5.077-.195.473-1 .903-1.905 1.4l-.006.004c-.692.374-1.475.798-2.088 1.297-.066.055-.128.117-.193.174-.082.076-.157.155-.234.234a63.79 63.79 0 0 1 1.314-2.544c.456-.417 1.12-.712 1.97-1.086.46-.203 1.036-.456 1.657-.77 2.024-1.024 2.842-3.433 2.592-5.198-.3.497-.922.723-1.72 1.005-.677.24-1.443.5-2.2 1.02-1.537 1.043-2.4 2.62-2.592 4.8l-.38.716c.215-.724.32-1.426.24-2.094-.076-.648-.276-1.28-.452-1.84l-.003-.01c-.234-.74-.435-1.387-.265-1.807-1.024.86-2.252 2.582-2.408 4.683-.1 1.492.37 2.898 1.4 4.08a62.29 62.29 0 0 0-.904 2.033c.122-.692.143-1.36-.004-1.983-.172-.728-.514-1.4-.816-2.013-.37-.738-.7-1.38-.556-1.833-.996.992-2.12 2.92-2.072 5.163.036 1.656.737 3.16 2.024 4.367a50.4 50.4 0 0 0-.678 2.128c.014-.624-.057-1.216-.256-1.76-.26-.7-.686-1.363-1.063-1.94-.46-.706-.858-1.315-.782-1.784-.853 1.08-1.724 3.1-1.428 5.32.226 1.68 1.103 3.134 2.54 4.226-.204 1.058-.362 2.1-.473 3.12-.092-1.22-.33-2.354-.933-3.225-.44-.635-1.03-1.168-1.545-1.637l-.004-.005c-.632-.574-1.182-1.074-1.225-1.552a7.5 7.5 0 0 0-.041 5.609c.65 1.587 1.877 2.793 3.557 3.503-.03.95-.02 1.883.03 2.802-.394-1.064-.97-2-1.726-2.797a7.86 7.86 0 0 0-3.921-2.256c.466.776.6 1.648.762 2.57l.002.01c.13.794.266 1.616.608 2.503.822 2.123 2.645 3.544 4.7 3.68a30.95 30.95 0 0 0 .498 2.322 8.18 8.18 0 0 0-1.967-1.885c-1.834-1.245-3.656-1.404-4.4-1.4.65.68.993 1.52 1.358 2.407.312.758.634 1.54 1.172 2.335 1.118 1.654 2.872 2.644 4.7 2.644a4.92 4.92 0 0 0 .482-.026c.338.825.7 1.638 1.117 2.435-.526-.557-1.108-1.03-1.777-1.362-.828-.4-1.796-.672-2.65-.9-1.123-.305-2.098-.568-2.467-1.065a7.3 7.3 0 0 0 .516 1.862c.76 1.8 2.125 3.33 3.746 4.232.015.008.02.008.023.01.046.023.092.05.138.075.023.013.047.023.07.037l.034.016c.01.005.02.01.03.016s.016.008.025.013a7.36 7.36 0 0 0 3.284.76h.002a8.35 8.35 0 0 0 1.144-.083 39.59 39.59 0 0 0 1.409 1.977 5.07 5.07 0 0 0-.726-.352c-.857-.333-1.85-.508-2.726-.664-1.154-.203-2.155-.38-2.56-.846.518 2.693 3.45 6.385 7.683 6.385a7.97 7.97 0 0 0 2.009-.273 53.18 53.18 0 0 0 1.567 1.542 6.01 6.01 0 0 0-.594-.201c-.943-.25-2-.32-2.95-.385l-.02-.003c-1.28-.08-2.388-.15-2.928-.622 1.122 2.84 4.592 5.885 8.294 5.888 1 0 1.986-.22 2.935-.64a86.63 86.63 0 0 0 5.478 3.91c-1.52.003-3.07.818-3.996 1.307l-.014.008.005.008a1.65 1.65 0 0 0-.422.268c-.64.562-.67 1.432-.085 2.323.297.453.92.82 1.58 1.2.363.214.747.443 1.08.7l-3.945 1.917a20.73 20.73 0 0 1-2.247-.695c1.333-.547 2.75-1.2 2.434-2.7a9.52 9.52 0 0 0-.032-.28l-.56-5.04a1.52 1.52 0 0 0-.808-1.232c-.4-.213-.922-.323-1.585-.323-2.323 0-6.188 1.323-11.176 3.833l-2.12 1.052-.643-2.8-.227.03c-5.5.8-9.437 2.26-10.508 3.932-.3.474-.38.958-.23 1.445.004.016.012.03.018.047h-.004l1.596 5.28c.153.503.493.87 1.012 1.1.37.156.842.237 1.398.237 2.243 0 5.982-1.32 10.813-3.818 2.795-1.448 5.233-2.54 7.204-3.237.112 1.505.128 3.2.128 4.695v.016h.01c-.001.04-.008.075-.008.115a2.59 2.59 0 0 0 .126.797l-2.64 1.128c.635.112 1.3.458 1.987.544l1.28-.58c.37.432.878.84 1.522 1.22 1.273.747 3.04 1.365 5.26 1.844.234.578.58 1.2 1.005 1.927l.323.542.122-.617a3.19 3.19 0 0 1 .694-1.464 47.07 47.07 0 0 0 6.6.516h.033a45.36 45.36 0 0 0 6.673-.529c.32.375.58.852.703 1.477l.114.578v.04l.323-.542c.43-.727.78-1.362 1.016-1.95 2.192-.48 3.94-1.1 5.194-1.84.626-.372 1.12-.773 1.484-1.198l1.28.58c.695-.086 1.352-.432 1.986-.544l-2.638-1.128a2.59 2.59 0 0 0 .126-.797 1.71 1.71 0 0 0-.014-.211c0-1.646.012-3.234.113-4.625 1.978.698 4.425 1.792 7.234 3.247 4.832 2.497 8.57 3.818 10.812 3.818.555 0 1.027-.08 1.4-.237.523-.22.862-.6 1.012-1.1l1.596-5.28h-.004c.007-.018.014-.03.017-.047.145-.484.07-.97-.232-1.44m8.057-12.146v5.042c0 1.435.445 2.13 1.4 2.13 1.075 0 1.5-.76 1.5-2.336v-4.836h1v5.422c0 1.66-1 2.727-2.52 2.727-1.608 0-2.5-1-2.5-2.9v-5.258h1.13m6.795-.001h1.5l1.836 4.117 1.055 2.62h.075v-6.737h.956v7.943h-1.466l-2-4.422a21.95 21.95 0 0 1-.944-2.445h-.077v6.867h-.956v-7.943m7.793 7.193h.685v-6.443h-.685v-.75h2.5v.75h-.684v6.443h.684v.75h-2.5v-.75m4.1-7.193h1.12l1.988 6.583h.097l1.988-6.583h1.12l-2.565 7.943h-1.195l-2.552-7.943m8.36 0h4.943v.98h-3.812v2.268H147v.98h-2.76v2.737h3.967v.98H143.1v-7.943M151.73 69h.793c1.325 0 1.968-.38 1.968-1.25s-.643-1.27-1.968-1.27h-.793zm-1.13-3.477h2.043c1.967 0 3 .794 3 2.216 0 1.03-.52 1.695-1.576 2.02l2.065 3.706h-1.304l-1.9-3.5h-1.196v3.5h-1.13v-7.943m7.88 5.718c.488.977 1 1.456 1.78 1.456.815 0 1.325-.5 1.325-1.273a1.2 1.2 0 0 0-.36-.857c-.433-.414-1-.6-1.563-.88s-1.087-.5-1.467-1c-.26-.35-.403-.77-.403-1.216 0-1.27.925-2.14 2.292-2.14 1.12 0 1.945.555 2.5 1.672l-.913.575c-.403-.88-.857-1.27-1.585-1.27-.74 0-1.153.38-1.153 1.044 0 .216.077.456.23.64.336.425.9.596 1.5.9 1.368.674 2.052 1.26 2.052 2.5 0 1.38-.988 2.28-2.497 2.28-1.272 0-2.163-.586-2.728-1.815l.968-.617m6.156 1.476h.685v-6.443h-.685v-.75h2.497v.75h-.683v6.443h.683v.75h-2.497v-.75m6.03-6.213h-2.315v-.98h5.76v.98h-2.315v6.963h-1.13v-6.963"/><path d="M178.7 62.892h1.065l-1.5 1.85h-.64zm-2.935 2.64h4.945v.98h-3.816v2.268h2.76v.98h-2.76v2.737h3.967v.98h-5.096v-7.943m-59.485 20.01c1.76 0 2.52-.9 2.52-3s-.76-2.987-2.52-2.987h-.6v5.987zm-1.738-6.963h1.836c2.336 0 3.574 1.357 3.574 3.963s-1.238 3.977-3.574 3.977h-1.836v-7.94"/><path d="M122.856 78.37h.913l-1.26 3.336h-.913l1.26-3.336m2.48 7.4h.685v-6.443h-.685v-.747h2.498v.747h-.685v6.443h.685v.75h-2.498v-.75m4.847-7.2h1.5l1.836 4.117 1.055 2.617h.076V78.58h.955v7.94h-1.465l-2-4.422a22.05 22.05 0 0 1-.944-2.443h-.077v6.865h-.956v-7.94m12.782 8.07l-.425-.792h-.216c-.5.596-.98.87-1.685.87-1.596 0-2.65-1.5-2.65-4.216 0-2.66 1.12-4.14 2.825-4.14 1.065 0 1.923.695 2.26 1.914l-1.055.237c-.175-.76-.64-1.172-1.26-1.172-1.065 0-1.62 1.042-1.62 3.172 0 2.15.553 3.227 1.63 3.227.837 0 1.532-.727 1.532-1.815v-.107h-1.52v-.98h2.573v3.802h-.4m5.914-10.7h1.065l-1.5 1.846h-.64zm-2.932 2.64h4.943v.977h-3.812v2.27h2.76v.977h-2.76v2.74h3.964v.977h-5.095v-7.94m7.425-.001h1.5l1.836 4.117 1.055 2.617h.076V78.58h.955v7.94h-1.465l-1.988-4.422c-.37-.815-.684-1.617-.944-2.443h-.077v6.865h-.957v-7.94m7.77 7.2h.685v-6.443h-.685v-.747h2.5v.747h-.684v6.443h.684v.75h-2.5v-.75m4.946-7.2h4.945v.977h-3.815v2.27h2.76v.977h-2.76v2.74h3.967v.977h-5.097v-7.94m8.612 3.475h.792c1.325 0 1.967-.38 1.967-1.25s-.64-1.27-1.967-1.27h-.792zm-1.13-3.477h2.04c1.965 0 2.997.792 2.997 2.216 0 1.03-.52 1.693-1.573 2.02l2.063 3.703h-1.3L175.873 83h-1.193v3.508h-1.13v-7.94m7.12 7.192h.685v-6.443h-.685v-.747h2.497v.747h-.68v6.443h.68v.75h-2.497v-.75m4.944-7.2h4.945v.977h-3.815v2.27h2.76v.977h-2.76v2.74h3.967v.977h-5.097v-7.94m-68.287-60.55h.734c1.665 0 2.284-.36 2.284-1.713 0-1.37-.62-1.73-2.284-1.73h-.734zm.36-5.466c1.615 0 2.806.065 3.67.555 1.077.603 1.663 1.714 1.663 3.18s-.586 2.595-1.663 3.198c-.85.474-2.056.556-3.67.556h-.36V24.5h-2.643V12.564h3.003m12.613 4.47c0-1.68-.13-2.464-1.37-2.464s-1.37.782-1.37 2.464v2.985c0 1.68.13 2.465 1.37 2.465s1.37-.784 1.37-2.465zm-5.418.44c0-1.828.082-3.1 1.06-4.112.7-.72 1.697-1.1 2.97-1.1s2.302.4 3.003 1.1c.98 1.012 1.06 2.284 1.06 4.112v2.104c0 1.828-.08 3.1-1.06 4.112-.7.718-1.73 1.1-3.003 1.1s-2.268-.392-2.97-1.1c-.98-1-1.06-2.284-1.06-4.112v-2.104m10.788-4.91h2.644v9.6h5.22V24.5h-7.865V12.564m9.737 7.163l-3.653-7.163h2.805l2.17 4.455 2.17-4.455h2.8l-3.64 7.163v4.764h-2.644v-4.764m9.558-4.847h-3.02v-2.317h8.68v2.317h-3.017v9.6h-2.645v-9.6m7.405-2.316h8.044v2.317h-5.4V17h3.688v2.318h-3.688v2.856h5.743v2.316h-8.385V12.564m10.043 4.912c0-1.828.08-3.1 1.06-4.112.703-.72 1.713-1.1 2.987-1.1 2.4 0 3.997 1.55 3.997 3.328v.718h-2.627c-.032-1.2-.425-1.73-1.37-1.73-1.34 0-1.37.85-1.37 2.464v2.985c0 1.666.115 2.465 1.37 2.465 1 0 1.37-.587 1.37-1.9v-.178h2.627v.8c0 2.104-1.564 3.605-3.997 3.605-1.273 0-2.284-.392-2.987-1.1-.98-1-1.06-2.284-1.06-4.112v-2.104m10.647-4.92h2.644v4.455h3.46v-4.455h2.643V24.5h-2.643v-5.156h-3.46V24.5h-2.644V12.564m11.84 0h2.545l3.817 7.245-.05-7.245h2.3V24.5h-2.172l-4.192-8.06.05 8.06h-2.3V12.564"/><path d="M205.578 23.365h1.355V13.6h-1.355v-1.044h5.367V13.6h-1.37v9.757h1.37v1.126h-5.367v-1.126m9.672-3.347c0 1.68.13 2.465 1.37 2.465.475 0 .8-.132 1.03-.457-.245-.474-.57-.702-1.03-.702h-.096v-2.284h.13c.67 0 1.205.375 1.515 1.06l.05-.033c-.13-.294-.18-.636-.18-1.06v-1.975c0-1.697-.13-2.464-1.404-2.464s-1.385.767-1.385 2.464zm-2.677-2.544c0-1.828.084-3.1 1.063-4.112.7-.72 1.745-1.1 3.033-1.1 1.275 0 2.284.4 2.988 1.1.98 1.012 1.06 2.284 1.06 4.112v2.104c0 1.387-.08 2.284-.245 2.708.325.442.653.637 1.093.637h.147V25.6h-.23c-1.14 0-1.875-.472-2.316-1.534-.72.522-1.5.734-2.497.734-1.273 0-2.333-.392-3.033-1.1-.98-1-1.063-2.268-1.063-4.112v-2.104m13.65 2.53c0 1.73.26 2.464 1.633 2.464 1.385 0 1.63-.75 1.63-2.464v-7.44h2.643v8.06c0 2.806-1.37 4.16-4.273 4.16-2.888 0-4.276-1.37-4.276-4.16v-8.06h2.643v7.44m9.032-7.44h8.044v2.317h-5.4V17h3.7v2.318h-3.7v2.856h5.745v2.316h-8.388V12.564M124 32.954l-2.545 10.018h-1.78l-2.545-10.018.08 10.018h-2.3V31.045h3.557l2.1 7.7 2.105-7.7h3.556v11.927h-2.3l.08-10.018m10.616 2.56c0-1.68-.13-2.463-1.37-2.463s-1.37.784-1.37 2.463V38.5c0 1.68.13 2.465 1.37 2.465s1.37-.784 1.37-2.465zm-5.417.442c0-1.828.082-3.1 1.06-4.112.7-.72 1.697-1.1 2.97-1.1s2.302.4 3.002 1.1c.98 1 1.06 2.284 1.06 4.112v2.104c0 1.828-.08 3.1-1.06 4.112-.7.717-1.73 1.1-3.002 1.1s-2.268-.392-2.97-1.1c-.98-1.012-1.06-2.284-1.06-4.112v-2.104m11.056-4.912h2.545l3.817 7.245-.048-7.245h2.3v11.927h-2.17l-4.193-8.06.05 8.06h-2.3V31.045M153.7 33.36h-3.02v-2.316h8.68v2.316h-3.02v9.6h-2.64v-9.6"/><path d="M163.734 36.217h.735c1.6 0 2.317-.228 2.317-1.567 0-1.354-.72-1.582-2.317-1.582h-.735zm.393-5.172c1.6 0 2.808.048 3.672.505 1.076.57 1.664 1.63 1.664 3.018 0 1.6-.768 2.742-2.187 3.232l2.612 5.172h-2.953l-2.32-4.862h-.883v4.862h-2.64V31.045h3.035m12.053-1.192h-1.224L176.5 26.9h2.284zm-4.195 1.192h8.044v2.316h-5.4v2.12h3.7v2.32h-3.7v2.855h5.745v2.317h-8.388V31.045m15.544 7.505l-1.27-5.384-1.3 5.384zm.508 2.04h-3.592l-.62 2.383h-2.563l3.427-11.927h3.117l3.427 11.927h-2.563l-.635-2.383M193 31.045h2.643v9.6h5.22v2.317H193V31.045"/></g></svg>