<svg xmlns="http://www.w3.org/2000/svg" viewBox="0 0 750 512.9"  xmlns:v="https://vecta.io/nano"><path fill="red" d="M0 0h750v512.9H0z"/><path d="M523.3 221.9h101.8S652.9 81.3 518.6 81.5C401 81.7 385.5 221.9 470.2 268c30.3 16.5 85.9 25.1 94.4 46.9 20.6 53.1-75 46.9-46-13.6L394 281.6S350.4 445.9 519.9 457c169.4 11.1 158.6-106.6 156.3-131.3-2.6-27.1-14.7-77.1-150.2-81.6-59.2-10.5-16.9-71.7-3.6-46.9 7.9 15 .9 24.7.9 24.7z"/><path d="M243.7 108.9L336 352.8s-33.2-232.3-13-271.3l163.1 51.9-17.3 114-26-5.8L422.6 409l-147.9 31.7L63.3 147.9l180.4-39z"/><g fill="#fff"><path d="M542 202.7h101.8S671.6 62.1 537.3 62.3c-117.6.2-133.1 140.4-48.4 186.5 30.3 16.5 85.9 25.1 94.4 46.9 20.6 53.1-75 46.9-46-13.6l-124.6-19.8s-43.6 164.3 125.9 175.4 158.6-106.6 156.3-131.3c-2.6-27.1-14.7-77.1-150.2-81.6-59.2-10.5-16.9-71.7-3.6-46.9 7.8 15.1.9 24.8.9 24.8z"/><path d="M262.4 89.8l92.3 243.9s-33.2-232.3-13-271.3l163.1 51.9-17.3 114-26-5.8-20.2 167.4-147.9 31.7L82 128.7l180.4-38.9z"/></g><path d="M222.9 158.4c-3.6-8-9.4-21-19.3-22.8-6.1-1.1-9.8 4.5-11.2 9.7-1.8 7-.7 14.8 3.4 20.8 6.7 9.6 17.8 8.8 28.4 8.3 12.9-.6 26.1-2.4 38.6-5.8l-5.4-6.8c-4.1 6.4-7.8 13.2-11.2 20.2-5.1 10.6-10.4 22.7-9.8 34.7l6.6 3.8c-1.9-6.9-4.3-13.8-7.1-20.5-3.2-7.8-7.6-18.7-16-22.2-4.7-2-1.3 5.9 1.4 7 2.4 1 3.9 4.3 5 6.4 2 3.7 3.7 7.7 5.2 11.7 1.8 4.8 3.5 9.7 4.9 14.6.5 1.9 1.8 3.8 3.5 4.7 1 .5 3.1 1 3-1-.5-11.9 4.9-23.9 10-34.4 3.2-6.5 6.7-13 10.6-19.1 1.4-2.2-3-7.4-5.4-6.8-9.8 2.6-19.9 4.2-30 5.2-7.6.7-16.9 2-24.4.2-2.8-.7-4.2-2.1-5.1-4.8-1.7-5.1-.9-13.2 3.3-17 6.9-6.3 12.8 8.5 14.7 12.8.7 1.5 2.5 4.4 4.5 4.3 2.2-.1 2.5-1.5 1.8-3.2h0zm-91.7 10.8c12.2 4.4 24.1 9.8 35.5 15.7 9.5 4.9 18.7 10.3 27.2 16.9 6.3 4.9 13.5 11.2 15.7 19.3.5 1.9 2 4.3 4 5 1.6.5 3-.1 2.5-2-2.6-11.1-6.5-22-11-32.5-7.2-16.6-17.2-34.5-33.3-43.9-5.1-3-3.2 4.3-.3 6 14.4 8.4 22.7 24.9 28.9 39.9 3.7 8.9 6.9 18.1 9.1 27.5 2.2 1 4.3 2 6.5 2.9-5.4-20.4-27.8-33.6-45-43.1-13.2-7.3-27.1-13.7-41.3-18.8-4.7-1.6-1.3 6.1 1.5 7.1h0zm372.1 202.5c7 7.8 13.8 17.3 16.4 27.6.4 1.5 4.5 6.6 5.3 3 2.4-11.8 4.3-29-6.2-37.5-3.3-2.7-2.8 2.6-.9 4.3 7.3 6.4 13.7 15.6 15 25.4.4 2.8.1 5.9 2.5 7.9 2.3 2 3.4 1.1 3.7-1.3 1-6.9-.1-14.8-.9-21.6s-1.9-15.1-7.6-19.7c.2 1.7.3 3.5.5 5.2 12.1 4.3 15.2 25.4 16.2 36.3.2 1.9 5.4 6.2 5.3 3-.2-7.2-.6-14.5-1.3-21.7-.5-5.3-1.1-10.6-2.1-15.8a54.75 54.75 0 0 0-1.5-5.8c-.2-.6-.4-1.8-.9-2.3-1.2-1.2 2.4-.8-.4 1.4h-1.7c-1.3-.6-1.6-1.2-1.7-1.3.2.6.9 1.3 1.2 1.9 1.2 1.8 2.3 3.7 3.5 5.6 3.1 5 6.1 10.1 9 15.1l12.5 21.4c1.7 3 6.4 3.5 4-.7L559.1 378l-9.2-15.3c-1.5-2.5-3.4-6.8-6.3-8.1-.5-.2-1.2-.4-1.7 0-1.4 1.2.9 5.2 1.3 6.4 1.5 4.9 2 10.2 2.6 15.3.9 8.1 1.4 16.2 1.6 24.3l5.3 3c-1.1-12.4-4.1-25.4-11.9-35.4-2.7-3.4-6.4-7.3-10.6-8.8-4-1.4-.8 4.2.5 5.2-.9-.7.4 1.6.6 2.2.5 1.5.8 3.1 1.1 4.6.7 3.9 1.1 7.9 1.4 11.8.2 3.4.4 6.9.3 10.3 0 1.1-.2 2.2-.1 3.2.2 1.8-.7.8.6.7 1.1.6 2.2 1.2 3.2 1.9 2 2.5.8 2.1.8.1s-.4-4.2-.9-6.2c-1.2-4.8-3.3-9.3-5.9-13.5-3.3-5.3-7.4-10.4-12.1-14.5l-.9 4.3c4 3.3 2.9 13.5 2.5 17.9-.3 3.7-.7 7.4-1.5 11.1l5.3 3c-3.1-12-10.5-23.1-18.7-32.3-3-3-6-.8-3.1 2.5h0z"/><path d="M582.2 376.3c-8.2 5-16 11-22.5 17.9l4.5 5.6c7.2-9.3 17.4-24.5 12.6-36.8-2.1-5.4-9.6-13.9-16.3-11.6-8.9 3 .1 16.9 2.9 20.8 2.5 3.5 5.4 1.2 2.9-2.3-1.8-2.6-5.5-7.5-3.7-11 1.1-2.1 3.4-2.1 5.4-1.2 5.8 2.8 5 9.6 3.4 14.7-2.4 7.7-6.8 15.2-11.8 21.6-1.6 2 2.8 7.4 4.5 5.6 6.5-7 14.4-13 22.5-17.9 2.1-1-2.1-6.8-4.4-5.4h0zm-21.1-.4l-13.9 7.9c-2.1 1.2 2.2 7 4.5 5.6l13.9-7.9c2.1-1.2-2.1-7-4.5-5.6h0z"/><path d="M581.8 357.2c-1.8-.3-1.7-2.3-1.3-.5.2.9.8 1.8 1.1 2.6 1 2.8 1.7 5.7 2.2 8.5 1.6 9 1.4 18.2.4 27.3-.2 1.5 3.3 6.6 4.9 4.7l14.6-17c.6-.7.5-1.6.1-2.4l-10.1-24.3c-1-2.5-6.6-5.2-4.8-.8l10.1 24.3c0-.8.1-1.6.1-2.4l-14.6 17c1.6 1.6 3.3 3.1 4.9 4.7 1.3-11.6 1.3-23.7-1.9-35-1.1-3.8-3.3-12-8.2-12.7-3.2-.5.2 5.7 2.5 6h0z"/><path d="M595.7 354.5c6.1 12.4 7.8 27.5 8.5 41 .1 2.3 5.5 6.8 5.3 3.7-.7-14.5-2.5-30.6-9-43.9-.6-1.2-2-3.5-3.6-3.4-1.5.1-1.9 1.2-1.2 2.6h0z"/><path d="M605 388.8c7.7-2.4 17-4.8 25-3.2 3.6.7-.7-5.2-1.8-5.8 1.2.7-1.6-1-2-1.3-2.1-1.4-4.2-3-6.2-4.7-5.7-5-10.2-10.8-12.5-18.1-.3-1-4.1-5.3-4.9-2.8l-3.4 9.8c-.8 2.3 4.2 7.3 5.1 4.8l3.4-9.8-4.9-2.8c4.2 13 14.9 23.9 26.6 30.6l-1.8-5.8c-8.5-1.8-18 .7-26.2 3.1-2.6.8 1.3 6.8 3.6 6h0z"/><path d="M622.6 366.2l6 25.4c.5 2.2 6.1 6.2 5.2 2.3l-6-25.4c-.5-2.2-6.1-6.2-5.2-2.3h0zm8.9 6.6l3.1 13.2c.4 1.6 1.6 3.4 3.2 4 1.3.5 2.4-.1 2-1.6l-3.1-13.2c-.4-1.6-1.6-3.4-3.2-4-1.2-.5-2.3.1-2 1.6h0z"/></svg>