<svg xmlns="http://www.w3.org/2000/svg" viewBox="0 0 3213 1799"  xmlns:v="https://vecta.io/nano"><style><![CDATA[.h{fill:#994e04}.i{fill:#b5b5b5}.j{fill:#969696}.k{fill:#eaeaea}.l{fill:#6d3400}.m{fill:#4d8e2f}.n{fill:#99d1c8}.o{fill:#435e37}.p{fill:#7fbc5e}.q{fill:#edc9e2}.r{fill:#4f8da8}.s{fill:#6b450e}.t{fill:#c979ba}.u{fill:#529a8e}.v{fill:#ccd6d4}]]></style><path d="M-2 1186l2 613h1177L3034 726 1912 81z" fill="#e5a133"/><path d="M795 1112l-258 150 690 396 257-148z" class="r"/><path d="M795 1112v75l-194.4 111.5L537 1262z" fill="#8cc4d3"/><path d="M1419.4 1547.2L795 1187v-75l689 398z" fill="#3a6f82"/><path d="M1592 1497v12l-366 212v-13z" class="i"/><path d="M795 1087v25l689 398 22-12z" class="j"/><path d="M795 1088v24l-258 150-22-13z" class="i"/><path d="M429 1249v12l797 460v-13z" class="j"/><path d="M795 1038l-366 211 797 459 366-211-797-459zm-279.9 211L795 1088l711 410-279 160.4L515.1 1249z" class="k"/><path d="M967 950v8l840 484v-8l100-57-725-419 44-25v-8z" class="i"/><path d="M1117 863.5L967 950l840 484 107-61-732-423 44-25z" class="k"/><path d="M3213 748l-1188.7 687.3L2605 1769l608-350z" class="r"/><path d="M881 551L367 255 0 466l-2 596z" class="m"/><path d="M2648 816l-64-37v-50l64 38z" class="j"/><path d="M2648 816l65-37v-50l-65 38z" class="i"/><path d="M2648 767l-64-38 64-37 65 37z" class="k"/><path d="M2703.7 832l-40.7-23.5v-31.8l40.7 24.2z" class="j"/><path d="M2703.7 832l41.3-23.5v-31.8l-41.3 24.2z" class="i"/><path d="M2703.7 800.9l-40.7-24.2 40.7-23.5 41.3 23.5z" class="k"/><path d="M222 1539l-64-37v-50l64 38z" class="j"/><path d="M222 1539l65-37v-50l-65 38z" class="i"/><path d="M222 1490l-64-38 64-37 65 37z" class="k"/><path d="M277.7 1555l-40.7-23.5v-31.8l40.7 24.2z" class="j"/><path d="M277.7 1555l41.3-23.5v-31.8l-41.3 24.2z" class="i"/><path d="M277.7 1523.9l-40.7-24.2 40.7-23.5 41.3 23.5z" class="k"/><path d="M2234 658l64-37v-50l-64 38z" class="j"/><path d="M2234 658l-65-37v-50l65 38z" class="i"/><path d="M2234 609l64-38-64-37-65 37z" class="k"/><path d="M2178.3 674l40.7-23.5v-31.8l-40.7 24.2z" class="j"/><path d="M2178.3 674l-41.3-23.5v-31.8l41.3 24.2z" class="i"/><path d="M2178.3 642.9l40.7-24.2-40.7-23.5-41.3 23.5z" class="k"/><path d="M2375 820l-43-25v75l43 25" class="l"/><path d="M2375 895v-75l43-25v75z" class="h"/><path d="M2375 820l-108-62V532l108 62z" class="o"/><path d="M2482 758l-107 62V594l107-62z" class="m"/><path d="M2375 594l-108-62 108-62 107 62z" class="p"/><path d="M2215 393l-29.8-17.3v52L2215 445" class="l"/><path d="M2215 445v-52l29.8-17.3v52z" class="h"/><path d="M2215 407.6l-104-61.7V227.4l104 59.6z" class="o"/><path d="M2320.3 346.6l-105.3 61V287l105.3-61z" class="m"/><path d="M2215 287l-104-59.6 104.7-62.4 104.6 61z" class="p"/><path d="M2773 589l-43-25v75l43 25" class="l"/><path d="M2773 664v-75l43-25v75z" class="h"/><path d="M2773 589l-108-62V353l108 62z" class="o"/><path d="M2880 527l-107 62V415l107-62z" class="m"/><path d="M2773 415l-108-62 108-62 107 62z" class="p"/><path d="M639 1013l-22-97.8 64-37.2v98.9z" class="h"/><path d="M746 915l-66-37.5 19 96.5 25 40m-42-61l-65-38 22 99 43 25" class="l"/><path d="M682 1038v-85.7l64-37.2-21 98.9z" class="h"/><path d="M681 890.3l-53.2 31L682 953l54-32-55-30.7" class="s"/><path d="M683 895l-12-.2v20.9l12 7" class="l"/><path d="M683 922.7V895l12-.2v20.9z" class="h"/><linearGradient id="A" gradientUnits="userSpaceOnUse" x1="744.465" y1="792.668" x2="617.785" y2="792.668"><stop offset="0" stop-color="#4d8e2f"/><stop offset=".29" stop-color="#4c8a30"/><stop offset=".578" stop-color="#4a7e32"/><stop offset=".863" stop-color="#466a35"/><stop offset="1" stop-color="#435e37"/></linearGradient><path d="M741.4 851.1L680 687l-61 168c-.8 2.3-1.3 4.7-1.3 7.2 0 20 28.4 36.2 63.3 36.2s63.3-16.2 63.3-36.2c.2-3.9-.9-7.6-2.9-11.1z" fill="url(#A)"/><path d="M478 1106l-22-97.8 64-37.2v98.9z" class="h"/><path d="M585 1008l-66-37.5 19 96.5 25 40m-42-61l-65-38 22 99 43 25" class="l"/><path d="M521 1131v-85.7l64-37.2-21 98.9z" class="h"/><path d="M520 983.3l-53.2 31L521 1046l54-32-55-30.7" class="s"/><path d="M522 988l-12-.2v20.9l12 7" class="l"/><path d="M522 1015.7V988l12-.2v20.9z" class="h"/><linearGradient id="B" gradientUnits="userSpaceOnUse" x1="583.465" y1="885.668" x2="456.785" y2="885.668"><stop offset="0" stop-color="#4d8e2f"/><stop offset=".29" stop-color="#4c8a30"/><stop offset=".578" stop-color="#4a7e32"/><stop offset=".863" stop-color="#466a35"/><stop offset="1" stop-color="#435e37"/></linearGradient><path d="M580.4 944.1L519 780l-61 168c-.8 2.3-1.3 4.7-1.3 7.2 0 20 28.4 36.2 63.3 36.2s63.3-16.2 63.3-36.2c.2-3.9-.9-7.6-2.9-11.1z" fill="url(#B)"/><path d="M295 1213l-22-97.8 64-37.2v98.9z" class="h"/><path d="M402 1115l-66-37.5 19 96.5 25 40m-42-61l-65-38 22 99 43 25" class="l"/><path d="M338 1238v-85.7l64-37.2-21 98.9z" class="h"/><path d="M337 1090.3l-53.2 31L338 1153l54-32-55-30.7" class="s"/><path d="M339 1095l-12-.2v20.9l12 7" class="l"/><path d="M339 1122.7V1095l12-.2v20.9z" class="h"/><linearGradient id="C" gradientUnits="userSpaceOnUse" x1="400.465" y1="992.668" x2="273.785" y2="992.668"><stop offset="0" stop-color="#4d8e2f"/><stop offset=".29" stop-color="#4c8a30"/><stop offset=".578" stop-color="#4a7e32"/><stop offset=".863" stop-color="#466a35"/><stop offset="1" stop-color="#435e37"/></linearGradient><path d="M397.4 1051.1L336 887l-61 168c-.8 2.3-1.3 4.7-1.3 7.2 0 20 28.4 36.2 63.3 36.2s63.3-16.2 63.3-36.2c.2-3.9-.9-7.6-2.9-11.1z" fill="url(#C)"/><g class="t"><path d="M1635 1161l-409-236V453l409 234v151l-216-124v149l216 124zm0-895v50l279.6 161.1L1958 452l-323-186"/><path d="M2001 900l-237-136 86-50 151 87v99m-775 25l-130-75v-50l21 13v25l109 62z"/><path d="M1139 826l1-25 86 50v24l-65-37m-1-50l1-24 65 37v25zm22-37v-24l44 24v25l-22-12m0-50v-25l44 24v25l-22-12"/></g><path d="M1635 987l43-25v125l323-187v-99l43-25v149l-409 236m-216-298l43-25v-99.6l-43-24.4zm216-25l409-236V453l-409 234zm-.5-571.5v49l-279.8 162.1-43.2-24.1zM1226 651.4V676l-22 13v25l-22 13v24l-21 13-1 24-21 13v25l-22 12v-25" class="n"/><path d="M1635 987l43-25-216-124-43 25zm366-186l-150.8-87.2 43.1-24.9L2044 776zm-884 37l22-12 87 49.2V900zm23-37l86 50v-25l-66-38zm86 0l-65-37 21-13 44 24.7zm0-50l-44-24 22-13 22 12zm0-50l-22-12 22-13m-109 137l-21-13 130-173v24zm518-596l-409 236 409 234 409-234-409-236zm-323 236l323-187 323 186-323 187-323-186z" class="q"/><path d="M1462 738l173 100 128.9-74.4L2001 900l-323 187V962l-216-124zm173-99l279.6-161.9L1635 316l-280.3 161.6z" class="u"/><path d="M1759 957.1l25.9 14.8 27.1-14.8V954l-27.1-13.9L1759 954z" fill="#b2b2b2"/><path d="M1759 954.1l25.9 14.8 27.1-14.8-27.1-16z" fill="#e8e8e8"/><linearGradient id="D" gradientUnits="userSpaceOnUse" x1="1790" y1="931.5" x2="1780" y2="931.5"><stop offset="0" stop-color="#e6e6e6"/><stop offset=".239" stop-color="#e3e3e3"/><stop offset=".429" stop-color="#d9d9d9"/><stop offset=".603" stop-color="#c8c8c8"/><stop offset=".767" stop-color="#b0b0b0"/><stop offset=".923" stop-color="#929292"/><stop offset="1" stop-color="gray"/></linearGradient><path d="M1785 958h0a4.95 4.95 0 0 1-5-5v-43a4.95 4.95 0 0 1 5-5h0a4.95 4.95 0 0 1 5 5v43a4.95 4.95 0 0 1-5 5z" fill="url(#D)"/><path d="M1847.7 882.5c.3 4.5-.1 19.2-1.9 22.5-7.9 14.4-32 25-60.6 25-29.7 0-54.6-11.4-61.5-26.7-1.2-2.7-2.7-16.7-2.7-19.7 4-17 30.5-32.6 65.5-32.6s58.5 18.5 61.2 31.5z" fill="#b2b2b2"/><ellipse cx="1784.3" cy="886.2" rx="63.3" ry="36.2" fill="#e8e8e8"/><path d="M1355 676l-65-37v149l65 38z" class="u"/><path d="M1355 676.9l-65-37v149l65 38z" opacity=".25"/><path d="M1333 764l22 12v50l-65-38z" class="q"/><path d="M1333 764l-43 24V639l43 25z" class="n"/><path d="M1355 754l-53-31v-77l53 30z" opacity=".45" fill="#b1c1e0"/><path d="M1227 899.5l-66-112v-39l-11.7-18.8 76.7-102.2zm300 26.5l-108-63V714l216 124 258-149 43.7 25-43.6 24.8.3 99.3L1678 962l-108-62" opacity=".25"/><g class="v"><path d="M1462 343l175-103-2-75-173 100zm-193 109l366 212v-75l-366-211z" opacity=".6"/><path d="M1637 239.7L2001 453v-75l-366-213zM1872 702l150 86.8V615l-85 49z" opacity=".6"/></g><path d="M1850 440.3L1742 502l-214.6-124 .2-49.6-42.6-24.9V251l30-16 376.4 118.3-.4 12.7-41 23.8z" opacity=".25"/><path d="M2001 465l-22-12V301l22-14z" class="t"/><path d="M2022 452V254l-215 124v199l22-12V391l172-103v177z" class="n"/><path d="M1785 565l22 12V378l-388-224v199l22 13V192l344 199z" class="t"/><path d="M1807 378l-388-223 215-125 388 224z" class="q"/><path d="M1635 664.6l161-93.6v-74l-161 92.4zM1829 552l161-93v-75l-161 93z" opacity=".6" class="v"/><path d="M1441 366l21-13V204l-21-12z" class="n"/><path d="M1269 452.6l160-93.6v-76l-160 94.4z" opacity=".6" class="v"/><path d="M-196 539h148v148h-148z" class="n"/><path d="M-377 539h148v148h-148z" class="u"/><path d="M-556 538h148v148h-148z" fill="#3f746a"/><path d="M-196 6h148v148h-148z" class="q"/><path d="M-377 6h148v148h-148z" fill="#aa6199"/><path d="M-560 6h148v148h-148z" fill="#965c8a"/><path d="M-194 180h148v148h-148z" class="p"/><path d="M-375 180h148v148h-148z" class="m"/><path d="M-556 180h148v148h-148z" class="o"/><path d="M-196 359h148v148h-148z" fill="#8cc4d3"/><path d="M-377 359h148v148h-148z" class="r"/><path d="M-558 359h148v148h-148z" fill="#3a6f82"/><path d="M-196 713h148v148h-148z" class="k"/><path d="M-377 713h148v148h-148z" class="i"/><path d="M-558 713h148v148h-148z" class="j"/></svg>